name symmetric_stride_kinematics_IKTD_Plus_2.mot
datacolumns 38
datarows 11
range 1.04221633 1.05324277
endheader
                time	/jointset/ground_pelvis/pelvis_tilt/value	/jointset/ground_pelvis/pelvis_list/value	/jointset/ground_pelvis/pelvis_rotation/value	/jointset/ground_pelvis/pelvis_tx/value	/jointset/ground_pelvis/pelvis_ty/value	/jointset/ground_pelvis/pelvis_tz/value	/jointset/hip_r/hip_flexion_r/value	/jointset/hip_r/hip_adduction_r/value	/jointset/hip_r/hip_rotation_r/value	/jointset/knee_r/knee_angle_r/value	/jointset/ankle_r/ankle_angle_r/value	/jointset/subtalar_r/subtalar_angle_r/value	/jointset/mtp_r/mtp_angle_r/value	/jointset/hip_l/hip_flexion_l/value	/jointset/hip_l/hip_adduction_l/value	/jointset/hip_l/hip_rotation_l/value	/jointset/knee_l/knee_angle_l/value	/jointset/ankle_l/ankle_angle_l/value	/jointset/subtalar_l/subtalar_angle_l/value	/jointset/mtp_l/mtp_angle_l/value	/jointset/back/lumbar_extension/value	/jointset/back/lumbar_bending/value	/jointset/back/lumbar_rotation/value	/jointset/acromial_r/arm_flex_r/value	/jointset/acromial_r/arm_add_r/value	/jointset/acromial_r/arm_rot_r/value	/jointset/elbow_r/elbow_flex_r/value	/jointset/radioulnar_r/pro_sup_r/value	/jointset/radius_hand_r/wrist_flex_r/value	/jointset/radius_hand_r/wrist_dev_r/value	/jointset/acromial_l/arm_flex_l/value	/jointset/acromial_l/arm_add_l/value	/jointset/acromial_l/arm_rot_l/value	/jointset/elbow_l/elbow_flex_l/value	/jointset/radioulnar_l/pro_sup_l/value	/jointset/radius_hand_l/wrist_flex_l/value	/jointset/radius_hand_l/wrist_dev_l/value	
          1.04221633	         -7.50097657	          3.46732665	          5.49261472	         12.35000012	          0.99653689	          0.30574225	         23.09713542	        -11.25415239	         -1.24543873	       -118.53295326	         -9.29548256	        -19.39867927	         -3.54915852	         34.69325099	          3.46462205	          0.20500749	        -17.56780391	        -22.46771311	        -15.56533251	         -0.36698354	        -17.61240100	         -7.41215604	          4.11876519	         -0.45028226	        -21.84522441	        -14.17822515	         73.51448885	         54.95155256	          0.42781555	          5.42057455	         -6.09382113	        -25.71190018	        -14.62220287	         93.52710373	         75.69632219	        -23.37888573	          5.25160205	
          1.04286272	         -7.59621830	          3.39237331	          5.78947394	         12.35774040	          0.99606943	          0.30593111	         23.54303425	        -11.27572647	         -1.41840226	       -118.89839618	         -9.10566710	        -19.47392151	         -3.44425737	         34.40105178	          3.51514836	          0.15203570	        -17.40804393	        -21.91084821	        -15.02843784	         -0.08813528	        -17.47387509	         -7.32011311	          3.91240541	         -1.01352960	        -21.60541626	        -14.03135380	         73.30437647	         55.32997602	          0.36087198	          5.46274319	         -5.13187190	        -25.64793112	        -14.54714063	         93.69851724	         75.96315868	        -23.30542063	          5.24717096	
          1.04490504	         -7.89607967	          3.13772440	          6.74008983	         12.38221088	          0.99450279	          0.30652409	         24.96287810	        -11.35121483	         -1.97204436	       -120.03919370	         -8.51711104	        -19.70777356	         -3.30733410	         33.47369030	          3.65669485	          0.07491096	        -16.93724308	        -20.05810555	        -13.52273142	          0.70214204	        -17.02464837	         -7.01917449	          3.23353370	         -2.77606972	        -20.84753731	        -13.46681256	         72.71622901	         56.47818679	          0.16331067	          5.64902831	         -2.09428267	        -25.43179336	        -14.27341318	         94.21412017	         76.93217430	        -23.05249785	          5.25094677	
          1.04638520	         -8.11118538	          2.93734364	          7.43827693	         12.39996098	          0.99328455	          0.30694622	         26.00189967	        -11.41361430	         -2.37709121	       -120.85239731	         -8.10204072	        -19.87463716	         -3.39287624	         32.79737260	          3.73951497	          0.10274513	        -16.63568888	        -18.65298101	        -12.61925596	          1.30120218	        -16.68917824	         -6.79380233	          2.71786214	         -4.03999484	        -20.29819889	        -12.97015329	         72.35760301	         57.31356112	          0.02664596	          5.80426895	          0.10043818	        -25.26396844	        -14.04360530	         94.57091533	         77.69354527	        -22.86079424	          5.25623450	
          1.04638520	         -8.11118538	          2.93734364	          7.43827693	         12.39996098	          0.99328455	          0.30694622	         26.00189967	        -11.41361430	         -2.37709121	       -120.85239731	         -8.10204072	        -19.87463716	         -3.39287624	         32.79737260	          3.73951497	          0.10274513	        -16.63568888	        -18.65298101	        -12.61925596	          1.30120218	        -16.68917824	         -6.79380233	          2.71786214	         -4.03999484	        -20.29819889	        -12.97015329	         72.35760301	         57.31356112	          0.02664596	          5.80426895	          0.10043818	        -25.26396844	        -14.04360530	         94.57091533	         77.69354527	        -22.86079424	          5.25623450	
          1.04703159	         -8.20354420	          2.84591437	          7.74483601	         12.40771701	          0.99273238	          0.30712752	         26.45734387	        -11.44290178	         -2.55426589	       -121.20368853	         -7.92403789	        -19.94713175	         -3.47424287	         32.50013647	          3.76965897	          0.13624828	        -16.51682995	        -18.02541984	        -12.27387639	          1.57494460	        -16.54115565	         -6.69387689	          2.48700184	         -4.58916685	        -20.05831656	        -12.73259224	         72.21829751	         57.68489069	         -0.03303187	          5.87142513	          1.05597230	        -25.18812351	        -13.93619588	         94.72437217	         78.02713545	        -22.77693860	          5.25652252	
          1.04907390	         -8.49074321	          2.54189073	          8.71641164	         12.43224352	          0.99090452	          0.30768246	         27.90644120	        -11.54331380	         -3.11120828	       -122.29810552	         -7.38740303	        -20.18270755	         -3.66737123	         31.55613922	          3.83632736	          0.32015391	        -16.20302754	        -15.96871296	        -11.31419230	          2.73457049	        -16.06482914	         -6.37445333	          1.73704913	         -6.31669361	        -19.30047019	        -11.91009720	         71.85119190	         58.84441524	         -0.23082702	          6.11891402	          4.05632831	        -24.93728732	        -13.58333164	         95.20831992	         79.09622030	        -22.50657764	          5.24840639	
          1.05055406	         -8.69343487	          2.31013990	          9.41984090	         12.45003989	          0.98950651	          0.30806333	         28.96606171	        -11.62492745	         -3.50707322	       -123.07620615	         -7.02061833	        -20.35687347	         -3.68183791	         30.86700811	          3.85586848	          0.51323708	        -16.04993386	        -14.41036856	        -10.73270139	          3.69732113	        -15.71326940	         -6.14317813	          1.17568561	         -7.56437070	        -18.75174085	        -11.25227063	         71.65448748	         59.64674639	         -0.37968600	          6.31784347	          6.20838740	        -24.74491479	        -13.32609157	         95.56528123	         79.90446040	        -22.30501207	          5.23033483	
          1.05055406	         -8.69343487	          2.31013990	          9.41984090	         12.45003989	          0.98950651	          0.30806333	         28.96606171	        -11.62492745	         -3.50707322	       -123.07620615	         -7.02061833	        -20.35687347	         -3.68183791	         30.86700811	          3.85586848	          0.51323708	        -16.04993386	        -14.41036856	        -10.73270139	          3.69732113	        -15.71326940	         -6.14317813	          1.17568561	         -7.56437070	        -18.75174085	        -11.25227063	         71.65448748	         59.64674639	         -0.37968600	          6.31784347	          6.20838740	        -24.74491479	        -13.32609157	         95.56528123	         79.90446040	        -22.30501207	          5.23033483	
          1.05120045	         -8.78032519	          2.20664984	          9.72582864	         12.45781731	          0.98887816	          0.30822286	         29.43139374	        -11.66311774	         -3.67650124	       -123.41195310	         -6.86554898	        -20.43304593	         -3.64360398	         30.56471714	          3.85637117	          0.61005346	        -16.00625695	        -13.70987611	        -10.50611432	          4.11577895	        -15.55848049	         -6.04314115	          0.92644899	         -8.10915001	        -18.51200915	        -10.95175522	         71.58790811	         59.97923530	         -0.44623051	          6.40859533	          7.14117748	        -24.65812149	        -13.21620374	         95.72477292	         80.26896429	        -22.21550734	          5.21927032	
          1.05324277	         -9.03330282	          1.87502533	         10.68366012	         12.48241776	          0.98685149	          0.30869502	         30.89471733	        -11.79388818	         -4.19378117	       -124.45374543	         -6.38309068	        -20.66483912	         -3.35856977	         29.58911581	          3.82304070	          0.94162237	        -15.98682460	        -11.41177917	         -9.89857997	          5.43793496	        -15.08281045	         -5.73327339	          0.12470086	         -9.82553207	        -17.75407584	         -9.96083513	         71.44402927	         61.04852258	         -0.66770403	          6.72761105	         10.05947140	        -24.37308836	        -12.88918678	         96.25143141	         81.44414875	        -21.92770597	          5.17151092	
